<svg id="Layer_1" data-name="Layer 1" xmlns="http://www.w3.org/2000/svg" viewBox="0 0 1920 1080"><defs><style>.cls-1{fill:#b3b3b3;}.cls-2{fill:none;stroke:#fff;stroke-miterlimit:10;stroke-width:10px;}.cls-3{fill:#fff;}.cls-4{fill:#b7b7b7;opacity:0.8;}</style></defs><title>Untitled-2</title><rect class="cls-1" x="0.5" y="0.5" width="1919" height="1079"/><path d="M1919,1V1079H1V1H1919m1-1H0V1080H1920V0Z"/><line class="cls-2" x1="1851" y1="137.5" x2="69.5" y2="137.5"/><line class="cls-2" x1="1851" y1="298" x2="69.5" y2="298"/><line class="cls-2" x1="1851" y1="458.5" x2="69.5" y2="458.5"/><line class="cls-2" x1="1851" y1="619" x2="69.5" y2="619"/><line class="cls-2" x1="1851" y1="779.5" x2="69.5" y2="779.5"/><line class="cls-2" x1="1851" y1="940" x2="69.5" y2="940"/><g id="g3214"><path class="cls-3" d="M1704.64,865.63a11.51,11.51,0,1,1-11.5,11.51A11.53,11.53,0,0,1,1704.64,865.63Z"/></g><g id="g3218"><path class="cls-3" d="M1804.12,811.94a6.93,6.93,0,0,1-2.32,9.23l-26.42,15.25v37.3a11.44,11.44,0,0,1-10.44,11.71l-34.94,2a11.13,11.13,0,0,1-1.29-22.22l9.88-.74V843a5.25,5.25,0,0,1,5.23-5.2,5.35,5.35,0,0,1,5.26,5.2v20.91l8.7-.28V834.82a6.69,6.69,0,0,1,3.25-5.57l33.89-19.62A6.79,6.79,0,0,1,1804.12,811.94Z"/></g><g id="g3222"><path class="cls-3" d="M1798.34,830.37a43.16,43.16,0,1,1-54.14,62.21l10.69-.63a34.1,34.1,0,1,0,32.92-55.5Z"/></g><rect class="cls-4" width="1920" height="1080"/></svg>